<svg xmlns="http://www.w3.org/2000/svg" style="display:none;">
  <!-- Іконка 1: список -->
  <symbol id="icon-list" viewBox="0 0 28 28">
    <path d="M23.3337 20.4168C23.7831 20.4171 24.2152 20.5902 24.5404 20.9003C24.8657 21.2104 25.0592 21.6338 25.0808 22.0827C25.1024 22.5316 24.9504 22.9716 24.6565 23.3116C24.3625 23.6515 23.949 23.8653 23.5017 23.9087L23.3337 23.9168H4.66699C4.21757 23.9166 3.78546 23.7435 3.46021 23.4334C3.13495 23.1232 2.94148 22.6998 2.91988 22.2509C2.89828 21.802 3.05022 21.362 3.3442 21.0221C3.63818 20.6822 4.05167 20.4684 4.49899 20.425L4.66699 20.4168H23.3337ZM23.3337 12.2502C23.7978 12.2502 24.2429 12.4345 24.5711 12.7627C24.8993 13.0909 25.0837 13.536 25.0837 14.0002C25.0837 14.4643 24.8993 14.9094 24.5711 15.2376C24.2429 15.5658 23.7978 15.7502 23.3337 15.7502H4.66699C4.20286 15.7502 3.75774 15.5658 3.42956 15.2376C3.10137 14.9094 2.91699 14.4643 2.91699 14.0002C2.91699 13.536 3.10137 13.0909 3.42956 12.7627C3.75774 12.4345 4.20286 12.2502 4.66699 12.2502H23.3337ZM23.3337 4.0835C23.7978 4.0835 24.2429 4.26787 24.5711 4.59606C24.8993 4.92425 25.0837 5.36937 25.0837 5.8335C25.0837 6.29762 24.8993 6.74274 24.5711 7.07093C24.2429 7.39912 23.7978 7.5835 23.3337 7.5835H4.66699C4.20286 7.5835 3.75774 7.39912 3.42956 7.07093C3.10137 6.74274 2.91699 6.29762 2.91699 5.8335C2.91699 5.36937 3.10137 4.92425 3.42956 4.59606C3.75774 4.26787 4.20286 4.0835 4.66699 4.0835H23.3337Z" fill="#303030"/>
  </symbol>

  <!-- Іконка 2: хрестик -->
  <symbol id="icon-cross" viewBox="0 0 28 28">
    <path d="M4.5591 4.5591C4.9172 4.20111 5.40282 4 5.90917 4C6.41553 4 6.90115 4.20111 7.25925 4.5591L14.0115 11.3114L20.7638 4.5591C21.124 4.21125 21.6063 4.01878 22.107 4.02313C22.6077 4.02748 23.0866 4.22831 23.4407 4.58236C23.7947 4.93641 23.9956 5.41536 23.9999 5.91605C24.0043 6.41673 23.8118 6.8991 23.464 7.25925L16.7117 14.0115L23.464 20.7638C23.8118 21.124 24.0043 21.6063 23.9999 22.107C23.9956 22.6077 23.7947 23.0866 23.4407 23.4407C23.0866 23.7947 22.6077 23.9956 22.107 23.9999C21.6063 24.0043 21.124 23.8118 20.7638 23.464L14.0115 16.7117L7.25925 23.464C6.8991 23.8118 6.41673 24.0043 5.91605 23.9999C5.41536 23.9956 4.93641 23.7947 4.58236 23.4407C4.22831 23.0866 4.02748 22.6077 4.02313 22.107C4.01878 21.6063 4.21125 21.124 4.5591 20.7638L11.3114 14.0115L4.5591 7.25925C4.20111 6.90115 4 6.41553 4 5.90917C4 5.40282 4.20111 4.9172 4.5591 4.5591Z" fill="#121212"/>
  </symbol>

  <!-- Іконка 3: стрілка -->
  <symbol id="icon-arrow" viewBox="0 0 81 48">
    <rect x="-0.5" y="0.5" width="79" height="47" rx="23.5" transform="matrix(-1 0 0 1 79.5 0)" stroke="#303030"/>
    <path d="M47.5 24H33.5" stroke="#303030" stroke-width="2" stroke-linecap="round" stroke-linejoin="round"/>
    <path d="M40.5 17L33.5 24L40.5 31" stroke="#303030" stroke-width="2" stroke-linecap="round" stroke-linejoin="round"/>
  </symbol>

  <!-- Іконка 4: стрілка темна -->
  <symbol id="icon-arrow-dark" viewBox="0 0 81 48">
    <rect x="0.5" width="80" height="48" rx="24" fill="#303030"/>
    <path d="M33.5 24H47.5" stroke="white" stroke-width="2" stroke-linecap="round" stroke-linejoin="round"/>
    <path d="M40.5 17L47.5 24L40.5 31" stroke="white" stroke-width="2" stroke-linecap="round" stroke-linejoin="round"/>
  </symbol>
</svg>

